<?xml version="1.0" encoding="UTF-8"?><svg xmlns="http://www.w3.org/2000/svg" viewBox="0 0 341.87 354.52"><defs><style>.c{fill:#ffc844;}.d{fill:#231f20;}.e{fill:none;stroke:#231f20;stroke-miterlimit:10;stroke-width:4px;}</style></defs><g id="a"/><g id="b"><g><g><polygon class="d" points="245.5 96.91 245.5 118.82 245.49 118.82 245.49 124.46 171.72 167.38 96.37 125.23 96.37 118.74 96.37 97.68 115.07 108.14 171.72 139.83 227.04 107.65 245.5 96.91"/><path class="c" d="M245.49,179.56v24.02c0,3.65-1.94,7.02-5.09,8.85l-61.21,35.61-2.43,1.41-5.12,2.98-5.85-3.28-2.43-1.36-61.74-34.53s-.05-.03-.07-.04c-3.2-1.83-5.18-5.23-5.18-8.92v-23.97l75.35,42.15,73.77-42.92Z"/><polygon class="d" points="245.49 152.02 245.49 179.56 171.72 222.48 96.37 180.33 96.37 152.78 171.72 194.93 245.49 152.02"/><polygon class="c" points="245.49 152.01 245.49 152.02 171.72 194.93 96.37 152.78 96.37 125.23 171.72 167.38 245.49 124.47 245.49 152.01"/><polygon class="d" points="176.76 249.45 176.35 252.55 171.6 288.27 166.33 252.82 165.79 249.15 171.64 252.43 176.76 249.45"/></g><g><path class="e" d="M115.07,108.14l52.76-29.87c3.41-1.94,7.6-1.87,10.95,.16l48.26,29.22"/><polyline class="e" points="245.49 152.02 171.72 194.93 96.37 152.78"/><polyline class="e" points="245.5 118.82 245.49 118.82 245.49 124.46"/><path class="e" d="M48.33,236.24L7.35,213.32c-3.3-1.85-5.35-5.35-5.35-9.14V77.25c0-3.78,2.03-7.28,5.33-9.14l41-23.23L121.52,3.43c3.39-1.92,7.56-1.86,10.9,.16l40.21,24.35"/><line class="e" x1="172.63" y1="27.94" x2="101.47" y2="68.24"/><polyline class="e" points="176.76 249.45 171.64 252.43 165.79 249.15"/><line class="e" x1="245.5" y1="118.83" x2="250.24" y2="121.7"/><polyline class="e" points="245.49 152.01 245.5 152.01 245.5 124.46"/><path class="e" d="M96.37,180.33v23.97c0,3.69,1.98,7.09,5.18,8.92,.02,.01,.05,.03,.07,.04l61.74,34.53,2.43,1.36,.54,3.67,5.27,35.45,4.75-35.72,.41-3.1,2.43-1.41,61.21-35.61c3.15-1.83,5.09-5.2,5.09-8.85v-24.02"/><path class="e" d="M286.91,143.89c3.06,1.88,4.92,5.21,4.92,8.79v125.7c0,3.66-1.94,7.04-5.1,8.88l-109.66,63.79c-3.31,1.93-7.4,1.96-10.75,.09l-112.72-63.05c-3.25-1.82-5.27-5.26-5.27-8.99v-127.19c0-3.64,1.94-7,5.08-8.84,.04-.02,.08-.05,.12-.07l12.6-7.13,24.48-13.87,5.76-3.26"/><path class="e" d="M291.84,237.41l42.84-24.92c3.21-1.87,5.19-5.31,5.19-9.03V78.13c0-3.77-1.97-7.26-5.19-9.21l-42.84-25.94L226.71,3.54c-3.29-1.99-7.39-2.05-10.73-.16l-43.35,24.56"/><polyline class="e" points="245.5 118.82 250.24 121.7 250.25 121.7 273.45 135.75 286.91 143.89"/><polyline class="e" points="96.37 125.23 96.37 118.74 96.37 97.68"/><line class="e" x1="245.49" y1="124.47" x2="171.72" y2="167.38"/><polyline class="e" points="245.5 96.91 245.5 118.82 245.5 118.83 245.5 124.46 245.49 124.46"/><path class="e" d="M245.5,77.91v19l-18.46,10.74-55.32,32.18-56.65-31.69-18.7-10.46v-20.42c0-3.69,1.93-7.11,5.08-9.01,.01,0,.01-.01,.02-.01,.07-.05,.15-.09,.23-.14L172.63,27.94l67.86,41.09c3.11,1.88,5.01,5.25,5.01,8.88Z"/><polygon class="e" points="245.49 124.46 245.49 124.47 245.49 152.01 245.49 152.02 245.49 179.56 171.72 222.48 96.37 180.33 96.37 152.78 96.37 125.23 171.72 167.38 245.49 124.46"/></g></g></g></svg>